# xmcd
#
# Track frame offsets:
#	150
#	15665
#	27215
#	41014
#	53180
#	64492
#	76787
#	93312
#	111472
#	126477
#	139570
#	148587
#	157677
#	172730
#	185842
#
# Disc length: 2702 seconds
#
# Revision: 1
# Processed by: cddbd v1.5.2PL0 Copyright (c) Steve Scherf et al.
# Submitted via: audiograbber 1.83.01
#
DISCID=c80a8c0f
DTITLE=Ed Parker - Still A Lot Of Good Miles Left In Me Ed Parker
DYEAR=1998
DGENRE=Country
TTITLE0=Still A Lot Of Good Miles Left In Me
TTITLE1=Loving You Has Always Been So Eady
TTITLE2=Just To Keep This Love
TTITLE3=Give Up A Little Love To Get Loved
TTITLE4=Too Old For Playboy Centerfold
TTITLE5=Before The Wather Runs Down
TTITLE6=I Got That Success Enogh For Me
TTITLE7=For Long As My Heart Can Remember
TTITLE8=Foldin Money
TTITLE9=That Old Jukebox
TTITLE10=If You Ain´t Easy
TTITLE11=Don´t Sing Me Some Sad Songs
TTITLE12=I´ll Be There To Start You Dreaming
TTITLE13=I Got An Ex-vife For Sale
TTITLE14=Losing Control Of The Reins
EXTD=
EXTT0=
EXTT1=
EXTT2=
EXTT3=
EXTT4=
EXTT5=
EXTT6=
EXTT7=
EXTT8=
EXTT9=
EXTT10=
EXTT11=
EXTT12=
EXTT13=
EXTT14=
PLAYORDER=
